<?xml version='1.0' encoding='UTF-8'?>
<svg width="33mm" height="33mm" version="1.1" viewBox="0 0 33 33" xmlns="http://www.w3.org/2000/svg"><path d="M2,2H3V3H2zM3,2H4V3H3zM4,2H5V3H4zM5,2H6V3H5zM6,2H7V3H6zM7,2H8V3H7zM8,2H9V3H8zM10,2H11V3H10zM11,2H12V3H11zM12,2H13V3H12zM15,2H16V3H15zM16,2H17V3H16zM17,2H18V3H17zM19,2H20V3H19zM24,2H25V3H24zM25,2H26V3H25zM26,2H27V3H26zM27,2H28V3H27zM28,2H29V3H28zM29,2H30V3H29zM30,2H31V3H30zM2,3H3V4H2zM8,3H9V4H8zM10,3H11V4H10zM12,3H13V4H12zM13,3H14V4H13zM15,3H16V4H15zM16,3H17V4H16zM17,3H18V4H17zM21,3H22V4H21zM22,3H23V4H22zM24,3H25V4H24zM30,3H31V4H30zM2,4H3V5H2zM4,4H5V5H4zM5,4H6V5H5zM6,4H7V5H6zM8,4H9V5H8zM10,4H11V5H10zM12,4H13V5H12zM13,4H14V5H13zM15,4H16V5H15zM16,4H17V5H16zM20,4H21V5H20zM24,4H25V5H24zM26,4H27V5H26zM27,4H28V5H27zM28,4H29V5H28zM30,4H31V5H30zM2,5H3V6H2zM4,5H5V6H4zM5,5H6V6H5zM6,5H7V6H6zM8,5H9V6H8zM11,5H12V6H11zM12,5H13V6H12zM14,5H15V6H14zM16,5H17V6H16zM17,5H18V6H17zM19,5H20V6H19zM20,5H21V6H20zM24,5H25V6H24zM26,5H27V6H26zM27,5H28V6H27zM28,5H29V6H28zM30,5H31V6H30zM2,6H3V7H2zM4,6H5V7H4zM5,6H6V7H5zM6,6H7V7H6zM8,6H9V7H8zM10,6H11V7H10zM12,6H13V7H12zM13,6H14V7H13zM15,6H16V7H15zM17,6H18V7H17zM20,6H21V7H20zM21,6H22V7H21zM24,6H25V7H24zM26,6H27V7H26zM27,6H28V7H27zM28,6H29V7H28zM30,6H31V7H30zM2,7H3V8H2zM8,7H9V8H8zM11,7H12V8H11zM13,7H14V8H13zM14,7H15V8H14zM15,7H16V8H15zM16,7H17V8H16zM22,7H23V8H22zM24,7H25V8H24zM30,7H31V8H30zM2,8H3V9H2zM3,8H4V9H3zM4,8H5V9H4zM5,8H6V9H5zM6,8H7V9H6zM7,8H8V9H7zM8,8H9V9H8zM10,8H11V9H10zM12,8H13V9H12zM14,8H15V9H14zM16,8H17V9H16zM18,8H19V9H18zM20,8H21V9H20zM22,8H23V9H22zM24,8H25V9H24zM25,8H26V9H25zM26,8H27V9H26zM27,8H28V9H27zM28,8H29V9H28zM29,8H30V9H29zM30,8H31V9H30zM13,9H14V10H13zM14,9H15V10H14zM16,9H17V10H16zM20,9H21V10H20zM21,9H22V10H21zM22,9H23V10H22zM2,10H3V11H2zM5,10H6V11H5zM6,10H7V11H6zM7,10H8V11H7zM8,10H9V11H8zM9,10H10V11H9zM10,10H11V11H10zM11,10H12V11H11zM12,10H13V11H12zM15,10H16V11H15zM16,10H17V11H16zM17,10H18V11H17zM18,10H19V11H18zM19,10H20V11H19zM21,10H22V11H21zM23,10H24V11H23zM26,10H27V11H26zM28,10H29V11H28zM29,10H30V11H29zM30,10H31V11H30zM2,11H3V12H2zM4,11H5V12H4zM6,11H7V12H6zM7,11H8V12H7zM9,11H10V12H9zM10,11H11V12H10zM12,11H13V12H12zM13,11H14V12H13zM16,11H17V12H16zM20,11H21V12H20zM21,11H22V12H21zM25,11H26V12H25zM26,11H27V12H26zM28,11H29V12H28zM29,11H30V12H29zM6,12H7V13H6zM7,12H8V13H7zM8,12H9V13H8zM9,12H10V13H9zM13,12H14V13H13zM14,12H15V13H14zM16,12H17V13H16zM20,12H21V13H20zM28,12H29V13H28zM2,13H3V14H2zM3,13H4V14H3zM7,13H8V14H7zM9,13H10V14H9zM11,13H12V14H11zM16,13H17V14H16zM17,13H18V14H17zM19,13H20V14H19zM22,13H23V14H22zM23,13H24V14H23zM24,13H25V14H24zM25,13H26V14H25zM26,13H27V14H26zM27,13H28V14H27zM30,13H31V14H30zM3,14H4V15H3zM4,14H5V15H4zM5,14H6V15H5zM7,14H8V15H7zM8,14H9V15H8zM11,14H12V15H11zM13,14H14V15H13zM15,14H16V15H15zM16,14H17V15H16zM18,14H19V15H18zM21,14H22V15H21zM22,14H23V15H22zM24,14H25V15H24zM25,14H26V15H25zM30,14H31V15H30zM3,15H4V16H3zM7,15H8V16H7zM9,15H10V16H9zM10,15H11V16H10zM12,15H13V16H12zM13,15H14V16H13zM19,15H20V16H19zM20,15H21V16H20zM23,15H24V16H23zM24,15H25V16H24zM25,15H26V16H25zM26,15H27V16H26zM27,15H28V16H27zM28,15H29V16H28zM29,15H30V16H29zM30,15H31V16H30zM3,16H4V17H3zM4,16H5V17H4zM5,16H6V17H5zM6,16H7V17H6zM8,16H9V17H8zM9,16H10V17H9zM16,16H17V17H16zM17,16H18V17H17zM19,16H20V17H19zM21,16H22V17H21zM22,16H23V17H22zM23,16H24V17H23zM24,16H25V17H24zM25,16H26V17H25zM26,16H27V17H26zM28,16H29V17H28zM30,16H31V17H30zM2,17H3V18H2zM6,17H7V18H6zM9,17H10V18H9zM11,17H12V18H11zM12,17H13V18H12zM13,17H14V18H13zM14,17H15V18H14zM15,17H16V18H15zM16,17H17V18H16zM18,17H19V18H18zM23,17H24V18H23zM28,17H29V18H28zM30,17H31V18H30zM2,18H3V19H2zM3,18H4V19H3zM4,18H5V19H4zM8,18H9V19H8zM10,18H11V19H10zM11,18H12V19H11zM13,18H14V19H13zM17,18H18V19H17zM22,18H23V19H22zM25,18H26V19H25zM27,18H28V19H27zM2,19H3V20H2zM3,19H4V20H3zM6,19H7V20H6zM10,19H11V20H10zM12,19H13V20H12zM13,19H14V20H13zM17,19H18V20H17zM20,19H21V20H20zM21,19H22V20H21zM22,19H23V20H22zM26,19H27V20H26zM28,19H29V20H28zM29,19H30V20H29zM2,20H3V21H2zM3,20H4V21H3zM4,20H5V21H4zM6,20H7V21H6zM8,20H9V21H8zM11,20H12V21H11zM12,20H13V21H12zM13,20H14V21H13zM15,20H16V21H15zM16,20H17V21H16zM17,20H18V21H17zM18,20H19V21H18zM19,20H20V21H19zM21,20H22V21H21zM22,20H23V21H22zM23,20H24V21H23zM24,20H25V21H24zM26,20H27V21H26zM27,20H28V21H27zM30,20H31V21H30zM2,21H3V22H2zM3,21H4V22H3zM4,21H5V22H4zM5,21H6V22H5zM7,21H8V22H7zM9,21H10V22H9zM10,21H11V22H10zM12,21H13V22H12zM13,21H14V22H13zM14,21H15V22H14zM15,21H16V22H15zM18,21H19V22H18zM23,21H24V22H23zM24,21H25V22H24zM26,21H27V22H26zM27,21H28V22H27zM28,21H29V22H28zM2,22H3V23H2zM3,22H4V23H3zM5,22H6V23H5zM6,22H7V23H6zM8,22H9V23H8zM11,22H12V23H11zM12,22H13V23H12zM14,22H15V23H14zM15,22H16V23H15zM17,22H18V23H17zM19,22H20V23H19zM20,22H21V23H20zM21,22H22V23H21zM22,22H23V23H22zM23,22H24V23H23zM24,22H25V23H24zM25,22H26V23H25zM26,22H27V23H26zM27,22H28V23H27zM28,22H29V23H28zM29,22H30V23H29zM10,23H11V24H10zM12,23H13V24H12zM15,23H16V24H15zM17,23H18V24H17zM19,23H20V24H19zM20,23H21V24H20zM22,23H23V24H22zM26,23H27V24H26zM27,23H28V24H27zM2,24H3V25H2zM3,24H4V25H3zM4,24H5V25H4zM5,24H6V25H5zM6,24H7V25H6zM7,24H8V25H7zM8,24H9V25H8zM10,24H11V25H10zM11,24H12V25H11zM12,24H13V25H12zM13,24H14V25H13zM15,24H16V25H15zM17,24H18V25H17zM21,24H22V25H21zM22,24H23V25H22zM24,24H25V25H24zM26,24H27V25H26zM27,24H28V25H27zM2,25H3V26H2zM8,25H9V26H8zM10,25H11V26H10zM11,25H12V26H11zM12,25H13V26H12zM14,25H15V26H14zM15,25H16V26H15zM17,25H18V26H17zM18,25H19V26H18zM19,25H20V26H19zM21,25H22V26H21zM22,25H23V26H22zM26,25H27V26H26zM29,25H30V26H29zM30,25H31V26H30zM2,26H3V27H2zM4,26H5V27H4zM5,26H6V27H5zM6,26H7V27H6zM8,26H9V27H8zM10,26H11V27H10zM11,26H12V27H11zM12,26H13V27H12zM15,26H16V27H15zM17,26H18V27H17zM21,26H22V27H21zM22,26H23V27H22zM23,26H24V27H23zM24,26H25V27H24zM25,26H26V27H25zM26,26H27V27H26zM27,26H28V27H27zM29,26H30V27H29zM30,26H31V27H30zM2,27H3V28H2zM4,27H5V28H4zM5,27H6V28H5zM6,27H7V28H6zM8,27H9V28H8zM10,27H11V28H10zM12,27H13V28H12zM14,27H15V28H14zM15,27H16V28H15zM16,27H17V28H16zM17,27H18V28H17zM18,27H19V28H18zM20,27H21V28H20zM21,27H22V28H21zM23,27H24V28H23zM30,27H31V28H30zM2,28H3V29H2zM4,28H5V29H4zM5,28H6V29H5zM6,28H7V29H6zM8,28H9V29H8zM11,28H12V29H11zM12,28H13V29H12zM13,28H14V29H13zM14,28H15V29H14zM15,28H16V29H15zM17,28H18V29H17zM19,28H20V29H19zM20,28H21V29H20zM23,28H24V29H23zM25,28H26V29H25zM26,28H27V29H26zM28,28H29V29H28zM29,28H30V29H29zM30,28H31V29H30zM2,29H3V30H2zM8,29H9V30H8zM11,29H12V30H11zM15,29H16V30H15zM16,29H17V30H16zM18,29H19V30H18zM23,29H24V30H23zM27,29H28V30H27zM28,29H29V30H28zM30,29H31V30H30zM2,30H3V31H2zM3,30H4V31H3zM4,30H5V31H4zM5,30H6V31H5zM6,30H7V31H6zM7,30H8V31H7zM8,30H9V31H8zM10,30H11V31H10zM11,30H12V31H11zM12,30H13V31H12zM13,30H14V31H13zM14,30H15V31H14zM16,30H17V31H16zM17,30H18V31H17zM21,30H22V31H21zM22,30H23V31H22zM24,30H25V31H24zM25,30H26V31H25zM26,30H27V31H26zM27,30H28V31H27z" id="qr-path" fill="#000000" fill-opacity="1" fill-rule="nonzero" stroke="none"/></svg>